<?xml version="1.0" encoding="UTF-8"?>
<svg width="24px" height="24px" viewBox="0 0 24 24" version="1.1" xmlns="http://www.w3.org/2000/svg" xmlns:xlink="http://www.w3.org/1999/xlink">
    <!-- Generator: Sketch 55.2 (78181) - https://sketchapp.com -->
    <title>icon_wj</title>
    <desc>Created with Sketch.</desc>
    <g id="智齿" stroke="none" stroke-width="1" fill="none" fill-rule="evenodd">
        <g id="02-智齿入口呼出" transform="translate(-1335.000000, -838.000000)">
            <g id="Group" transform="translate(1325.000000, 830.000000)">
                <g id="Group-7" transform="translate(10.000000, 8.000000)">
                    <g id="编组">
                        <circle id="Oval" fill="#44464A" cx="12" cy="12" r="12"></circle>
                        <g id="Group" transform="translate(5.000000, 5.000000)">
                            <rect id="Rectangle" fill="#FFB500" x="0" y="3.5862069" width="14" height="9.4137931" rx="1"></rect>
                            <rect id="Rectangle" fill="#FAFAFA" x="1.4" y="0" width="11.2" height="10.7586207" rx="1"></rect>
                            <rect id="Rectangle-Copy-53" fill="#D9D9D9" x="3.73333333" y="4.48275862" width="6.53333333" height="1" rx="0.5"></rect>
                            <rect id="Rectangle-Copy-54" fill="#D9D9D9" x="3.73333333" y="2.24137931" width="6.53333333" height="1" rx="0.5"></rect>
                            <path d="M1.86666667,4.93103448 L14,13 L2.86666667,13 C2.31438192,13 1.86666667,12.5522847 1.86666667,12 L1.86666667,4.93103448 Z" id="Rectangle" fill="#FFB500" transform="translate(7.933333, 8.965517) scale(-1, 1) translate(-7.933333, -8.965517) "></path>
                            <path d="M-5.5067062e-14,4.93103448 L12.1333333,13 L1,13 C0.44771525,13 -5.45088992e-14,12.5522847 -5.5067062e-14,12 L-5.5067062e-14,4.93103448 Z" id="Rectangle" fill="#FFC936"></path>
                        </g>
                    </g>
                </g>
            </g>
        </g>
    </g>
</svg>