<?xml version="1.0" encoding="UTF-8"?>
<svg width="24px" height="24px" viewBox="0 0 24 24" version="1.1" xmlns="http://www.w3.org/2000/svg" xmlns:xlink="http://www.w3.org/1999/xlink">
    <!-- Generator: Sketch 55.2 (78181) - https://sketchapp.com -->
    <title>icon_yz</title>
    <desc>Created with Sketch.</desc>
    <g id="智齿" stroke="none" stroke-width="1" fill="none" fill-rule="evenodd">
        <g id="02-智齿入口呼出" transform="translate(-1335.000000, -942.000000)">
            <g id="Group备份-2" transform="translate(1325.000000, 934.000000)">
                <g id="Group-7" transform="translate(10.000000, 8.000000)">
                    <g id="编组">
                        <circle id="Oval" fill="#44464A" cx="12" cy="12" r="12"></circle>
                        <g id="logo" transform="translate(6.000000, 6.000000)">
                            <path d="M7.149,7.94594444 L7.94588889,7.14905556 C8.129,6.96605556 8.42366667,6.95927778 8.61488889,7.13372222 L11.8261111,10.0658333 C12.03,10.2519444 12.0372222,10.5706111 11.842,10.7659444 L10.7658889,11.8418333 C10.5706667,12.0371667 10.252,12.0300556 10.0657778,11.8261667 L7.13377778,8.61494444 C6.95922222,8.42372222 6.966,8.12883333 7.149,7.94594444" id="Fill-1" fill="#FFFFFF"></path>
                            <path d="M4.83482222,4.03796667 L4.03793333,4.83485556 C3.85482222,5.01785556 3.56015556,5.02463333 3.36893333,4.85007778 L0.157711111,1.91807778 C-0.0461777778,1.73196667 -0.0534,1.4133 0.141822222,1.21796667 L1.21793333,0.141966667 C1.41326667,-0.0533666667 1.73193333,-0.0461444444 1.91804444,0.157744444 L4.85004444,3.36896667 C5.0246,3.56018889 5.01782222,3.85496667 4.83482222,4.03796667" id="Fill-3" fill="#FFFFFF"></path>
                            <path d="M4.03788889,7.14907778 L4.83477778,7.94596667 C5.01788889,8.12896667 5.02455556,8.42374444 4.85,8.61474444 L1.918,11.8261889 C1.73188889,12.0300778 1.41322222,12.0373 1.218,11.8418556 L0.141888889,10.7659667 C-0.0533333333,10.5706333 -0.0461111111,10.2519667 0.157777778,10.0658556 L3.36888889,7.13385556 C3.56011111,6.9593 3.85488889,6.96607778 4.03788889,7.14907778" id="Fill-6" fill="#FFFFFF"></path>
                            <path d="M7.94593333,4.83483333 L7.14904444,4.03794444 C6.96593333,3.85494444 6.95926667,3.56016667 7.13382222,3.36905556 L10.0658222,0.157722222 C10.2519333,-0.0461666667 10.5707111,-0.0533888889 10.7658222,0.141944444 L11.8419333,1.21794444 C12.0372667,1.41327778 12.0299333,1.73194444 11.8260444,1.91805556 L8.61493333,4.85005556 C8.42371111,5.02461111 8.12893333,5.01783333 7.94593333,4.83483333" id="Fill-9" fill="#EDB980"></path>
                        </g>
                    </g>
                </g>
            </g>
        </g>
    </g>
</svg>