<?xml version="1.0" encoding="UTF-8"?>
<svg width="24px" height="24px" viewBox="0 0 24 24" version="1.1" xmlns="http://www.w3.org/2000/svg" xmlns:xlink="http://www.w3.org/1999/xlink">
    <!-- Generator: Sketch 61.2 (89653) - https://sketch.com -->
    <title>nav_account@2x</title>
    <desc>Created with Sketch.</desc>
    <g id="页面1" stroke="none" stroke-width="1" fill="none" fill-rule="evenodd">
        <g id="1商划_效果评估_新店" transform="translate(-24.000000, -340.000000)">
            <g id="导航">
                <g id="编组-3备份-7" transform="translate(24.000000, 328.000000)">
                    <g id="导航/商圈规划" transform="translate(0.000000, 12.000000)">
                        <g>
                            <rect id="矩形" x="0" y="0" width="24" height="24"></rect>
                            <g id="账户管理" transform="translate(5.000000, 5.000000)" fill-rule="nonzero">
                                <path d="M13.4191406,-0.994726563 L1.771875,-0.994726563 C0.796289062,-0.994726563 0.003515625,-0.201953125 0.003515625,0.773632812 L0.003515625,13.8267578 C0.003515625,14.8023437 0.796289062,15.5951172 1.771875,15.5951172 L13.4191406,15.5951172 C14.3947266,15.5951172 15.1875,14.8023438 15.1875,13.825 L15.1875,0.773632813 C15.1875,-0.201953125 14.3947266,-0.994726563 13.4191406,-0.994726563 Z M13.4191406,14.5316406 L1.771875,14.5316406 C1.38339844,14.5316406 1.06523437,14.2152344 1.06523437,13.825 L1.06523437,0.773632813 C1.06523437,0.38515625 1.38164063,0.0669921875 1.771875,0.0669921875 L13.4191406,0.0669921875 C13.8076172,0.0669921875 14.1257813,0.383398437 14.1257813,0.773632812 L14.1257813,3.45410156 L11.9420525,3.45410156 C11.6484978,3.45410156 11.4111931,3.69140625 11.4111931,3.98496094 C11.4111931,4.27851562 11.6484978,4.51582031 11.9420525,4.51582031 L14.1257813,4.51582031 L14.1257813,6.63574219 L11.9420525,6.63574219 C11.6484978,6.63574219 11.4111931,6.87304687 11.4111931,7.16660156 C11.4111931,7.46015625 11.6484978,7.69746094 11.9420525,7.69746094 L14.1257813,7.69746094 L14.1257813,9.81914062 L11.9420525,9.81914062 C11.6484978,9.81914062 11.4111931,10.0564453 11.4111931,10.35 C11.4111931,10.6435547 11.6484978,10.8808594 11.9420525,10.8808594 L14.1257813,10.8808594 L14.1257813,13.825 C14.1257813,14.2134766 13.809375,14.5316406 13.4191406,14.5316406 Z" id="形状" stroke="#0F0F0F" stroke-width="0.3" fill="#0F0F0F"></path>
                                <path d="M8.01033763,7.24921875 C8.50428294,6.79394531 8.81365794,6.14179688 8.81365794,5.41757813 C8.81365794,4.04296875 7.69393138,2.925 6.31932201,2.925 C4.94471263,2.925 3.82674388,4.04296875 3.82674388,5.41757813 C3.82674388,6.14003906 4.13611888,6.7921875 4.62830638,7.24746094 C3.38377513,7.86972656 2.52772044,9.15644531 2.52772044,10.6400391 C2.52772044,10.9335938 2.76502513,11.1708984 3.05857982,11.1708984 C3.35213451,11.1708984 3.58943919,10.9335938 3.58943919,10.6400391 C3.58943919,9.13359375 4.81463451,7.91015625 6.31932201,7.91015625 C7.82400951,7.91015625 9.04920482,9.13535156 9.04920482,10.6400391 C9.04920482,10.9335938 9.28650951,11.1708984 9.58006419,11.1708984 C9.87361888,11.1708984 10.1109236,10.9335938 10.1109236,10.6400391 C10.1109236,9.15820312 9.25311107,7.87148438 8.01033763,7.24921875 Z M6.31932201,3.98496094 C7.11033763,3.98496094 7.75193919,4.62832031 7.75193919,5.41757813 C7.75193919,6.20683594 7.10857982,6.85019531 6.31932201,6.85019531 C5.53006419,6.85019531 4.88670482,6.20683594 4.88670482,5.41757813 C4.88670482,4.62832031 5.53006419,3.98496094 6.31932201,3.98496094 Z" id="形状" stroke="#131313" stroke-width="0.2" fill="#131313"></path>
                            </g>
                        </g>
                    </g>
                </g>
            </g>
        </g>
    </g>
</svg>