<?xml version="1.0" encoding="UTF-8"?>
<svg width="24px" height="24px" viewBox="0 0 24 24" version="1.1" xmlns="http://www.w3.org/2000/svg" xmlns:xlink="http://www.w3.org/1999/xlink">
    <!-- Generator: Sketch 61.2 (89653) - https://sketch.com -->
    <title>nav_home@2x</title>
    <desc>Created with Sketch.</desc>
    <g id="页面1" stroke="none" stroke-width="1" fill="none" fill-rule="evenodd">
        <g id="1商划_效果评估_新店" transform="translate(-24.000000, -100.000000)">
            <g id="导航">
                <g id="编组-3" transform="translate(24.000000, 88.000000)">
                    <g id="导航/商圈规划" transform="translate(0.000000, 12.000000)">
                        <g id="导航/首页">
                            <rect id="矩形" x="0" y="0" width="24" height="24"></rect>
                            <g id="编组" transform="translate(6.000000, 6.000000)" stroke="#0F0F0F">
                                <path d="M6.6195949,-0.510909415 L11.6195949,3.43594832 C11.8598349,3.62558697 12,3.9148013 12,4.22087008 L12,11.7 C12,12.2522847 11.5522847,12.7 11,12.7 L1,12.7 C0.44771525,12.7 6.76353751e-17,12.2522847 0,11.7 L0,4.22087008 C-8.14638732e-16,3.9148013 0.14016506,3.62558697 0.3804051,3.43594832 L5.3804051,-0.510909415 C5.74369536,-0.79768041 6.25630464,-0.79768041 6.6195949,-0.510909415 Z" id="矩形" stroke-width="1.4"></path>
                                <rect id="矩形" stroke-width="1.3" x="4" y="5" width="4" height="4" rx="2"></rect>
                            </g>
                        </g>
                    </g>
                </g>
            </g>
        </g>
    </g>
</svg>
