<?xml version="1.0" encoding="UTF-8"?>
<svg width="24px" height="24px" viewBox="0 0 24 24" version="1.1" xmlns="http://www.w3.org/2000/svg" xmlns:xlink="http://www.w3.org/1999/xlink">
    <!-- Generator: Sketch 61.2 (89653) - https://sketch.com -->
    <title>nav_Businessplanning@2x</title>
    <desc>Created with Sketch.</desc>
    <g id="页面1" stroke="none" stroke-width="1" fill="none" fill-rule="evenodd">
        <g id="1商划_效果评估_新店" transform="translate(-28.000000, -148.000000)">
            <g id="导航">
                <g id="编组-3" transform="translate(24.000000, 136.000000)">
                    <g id="导航/商圈规划" transform="translate(4.000000, 12.000000)">
                        <g>
                            <rect id="矩形" x="0" y="0" width="24" height="24"></rect>
                            <g id="商圈小" transform="translate(4.000000, 4.000000)" fill="#0F0F0F" fill-rule="nonzero">
                                <path d="M9.33333333,2.71186517 L12.0013333,2.71186517 C12.5320588,2.71240423 13.0408268,2.92737108 13.4156688,3.30945629 C13.7905107,3.69154151 14.0007077,4.20943256 14.0000018,4.74915318 L14.0000018,12.2000002 C14.0000018,12.4422389 13.8729785,12.6660925 13.6666961,12.7872225 C13.4604138,12.9083526 13.2062529,12.9083526 12.9999705,12.7872225 C12.7936882,12.6660925 12.6666302,12.4422389 12.6666576,12.2000002 L12.6666576,4.74915318 C12.6666576,4.37220405 12.3686667,4.06779729 12.0013333,4.06779729 L9.33333333,4.06779729 L9.33333333,12.8779663 C9.33327697,13.2523561 9.03481664,13.5558286 8.66665765,13.5558286 C8.29851669,13.5558286 8.00005636,13.2523561 8,12.8779663 L8,2.03728895 C8,1.66033981 7.702,1.35593305 7.33466667,1.35593305 L4.66533333,1.35593305 C4.48800928,1.35574638 4.31796348,1.42762475 4.19301534,1.55558189 C4.0680672,1.68353903 3.99857704,1.85696513 4,2.03728895 L4,12.8779663 C3.99994364,13.2523561 3.70148331,13.5558286 3.33333334,13.5558286 C2.96518336,13.5558286 2.66665765,13.2523561 2.66665765,12.8779663 L2.66665765,2.03728895 C2.66507143,1.49729337 2.87498286,0.978878196 3.25001711,0.596596946 C3.62505136,0.214315696 4.13433537,-0.000361997165 4.66533333,4.58223915e-07 L7.33466667,4.58223915e-07 C7.86539219,0.000539983283 8.37416016,0.215506831 8.74900209,0.597592048 C9.12384402,0.979677265 9.33404099,1.49756832 9.33333333,2.03728895 L9.33333333,2.71186517 Z M9.3972097,2.71186517 L9.38583196,2.71186517 L9.38583196,4.06779729 L9.3972097,4.06779729 L9.3972097,2.71186517 Z M10,6.85714332 C10,6.482713 10.2984768,6.17917725 10.6666667,6.17917725 L11.3333333,6.17917725 C11.7015232,6.17917725 12,6.482713 12,6.85714332 C12,7.23157364 11.7015232,7.53510938 11.3333333,7.53510938 L10.6666667,7.53510938 C10.2984768,7.53510938 10,7.23157364 10,6.85714332 Z M10.6666667,10.7118647 C10.2984768,10.7118647 10,10.408329 10,10.0338986 C10,9.65946833 10.2984768,9.35593258 10.6666667,9.35593258 L11.3333333,9.35593258 C11.7015232,9.35593258 12,9.65946833 12,10.0338986 C12,10.408329 11.7015232,10.7118647 11.3333333,10.7118647 L10.6666667,10.7118647 Z M4.66666666,3.68038799 C4.66666666,3.30595767 4.96514349,3.00242192 5.33333333,3.00242192 L6.66666666,3.00242192 C7.03485651,3.00242192 7.33333334,3.30595767 7.33333334,3.68038799 C7.33333334,4.05481831 7.03485651,4.35835405 6.66666666,4.35835405 L5.33333333,4.35835405 C4.96514349,4.35835405 4.66666666,4.05481831 4.66666666,3.68038799 Z M5.33333333,8.21307544 C4.96518335,8.21301812 4.66676872,7.90949916 4.66676872,7.53510938 C4.66676872,7.16071959 4.96518335,6.85720063 5.33333333,6.85714332 L6.66666667,6.85714332 C7.03481665,6.85720063 7.33323128,7.16071959 7.33323128,7.53510938 C7.33323128,7.90949916 7.03481665,8.21301812 6.66666667,8.21307544 L5.33333333,8.21307544 Z M4.66676872,11.3898308 C4.66676872,11.015441 4.96518335,10.711922 5.33333333,10.7118647 L6.66666667,10.7118647 C7.03481665,10.711922 7.33323128,11.015441 7.33323128,11.3898308 C7.33323128,11.7642206 7.03481665,12.0677395 6.66666667,12.0677968 L5.33333333,12.0677968 C4.96518335,12.0677395 4.66676872,11.7642206 4.66676872,11.3898308 Z M0,12.6101697 C0,12.2357799 0.298516685,11.9323074 0.666666664,11.9323074 C1.03481664,11.9323074 1.33327697,12.2357799 1.33333333,12.6101697 C1.33333333,13.5464408 4.30066666,14.6440679 8,14.6440679 C11.6993333,14.6440679 14.6666667,13.5464408 14.6666667,12.6101697 C14.666723,12.2357799 14.9651834,11.9323074 15.3333333,11.9323074 C15.7014833,11.9323074 16,12.2357799 16,12.6101697 C16,14.6691526 12.4013333,16 8,16 C3.59866667,16 0,14.6691526 0,12.6101697 Z" id="形状"></path>
                            </g>
                        </g>
                    </g>
                </g>
            </g>
        </g>
    </g>
</svg>