<?xml version="1.0" encoding="UTF-8"?>
<svg width="32px" height="32px" viewBox="0 0 32 32" version="1.1" xmlns="http://www.w3.org/2000/svg" xmlns:xlink="http://www.w3.org/1999/xlink">
    <!-- Generator: Sketch 61.2 (89653) - https://sketch.com -->
    <title>nav_personage@2x</title>
    <desc>Created with Sketch.</desc>
    <defs>
        <circle id="path-1" cx="16" cy="16" r="16"></circle>
        <linearGradient x1="50%" y1="0%" x2="51.4586789%" y2="70.5785958%" id="linearGradient-3">
            <stop stop-color="#FFFFFF" offset="0%"></stop>
            <stop stop-color="#F6F6F6" offset="100%"></stop>
        </linearGradient>
    </defs>
    <g id="页面1" stroke="none" stroke-width="1" fill="none" fill-rule="evenodd">
        <g id="1商划_效果评估_新店" transform="translate(-1368.000000, -16.000000)">
            <g id="topbar" transform="translate(240.000000, 0.000000)">
                <g id="个人信息" transform="translate(1038.000000, 16.000000)">
                    <g id="导航/个人头像" transform="translate(90.000000, 0.000000)">
                        <g id="编组">
                            <g id="icon_personage">
                                <rect id="Rectangle-5" fill="#D8D8D8" opacity="0" x="0" y="0" width="32" height="32"></rect>
                                <g id="Oval-2" transform="translate(1.000000, 0.000000)">
                                    <g id="Rectangle-13" transform="translate(-1.000000, 0.000000)">
                                        <mask id="mask-2" fill="white">
                                            <use xlink:href="#path-1"></use>
                                        </mask>
                                        <use id="Mask" fill="#D3D8DB" xlink:href="#path-1"></use>
                                        <path d="M16.110675,18.5196232 C22.0397163,18.5196232 26.8461538,23.3260608 26.8461538,29.255102 C26.8461538,35.1841433 22.0397163,39.9905808 16.110675,39.9905808 L15.889325,39.9905808 C9.96028373,39.9905808 5.15384615,35.1841433 5.15384615,29.255102 C5.15384615,23.3260608 9.96028373,18.5196232 15.889325,18.5196232 L16.110675,18.5196232 Z M16,6.53846154 C18.5672137,6.53846154 20.6483516,8.61959946 20.6483516,11.1868132 L20.6483516,11.6093906 C20.6483516,14.1766043 18.5672137,16.2577423 16,16.2577423 C13.4327863,16.2577423 11.3516484,14.1766043 11.3516484,11.6093906 L11.3516484,11.1868132 C11.3516484,8.61959946 13.4327863,6.53846154 16,6.53846154 Z" id="Combined-Shape" fill="url(#linearGradient-3)" mask="url(#mask-2)"></path>
                                    </g>
                                </g>
                            </g>
                        </g>
                    </g>
                </g>
            </g>
        </g>
    </g>
</svg>