<?xml version="1.0" encoding="UTF-8"?>
<svg width="32px" height="32px" viewBox="0 0 32 32" version="1.1" xmlns="http://www.w3.org/2000/svg" xmlns:xlink="http://www.w3.org/1999/xlink">
    <!-- Generator: Sketch 61.2 (89653) - https://sketch.com -->
    <title>newstore_2@2x</title>
    <desc>Created with Sketch.</desc>
    <defs>
        <linearGradient x1="106.296723%" y1="105.455987%" x2="-5.52431534%" y2="-7.92350016%" id="linearGradient-1">
            <stop stop-color="#2771FF" offset="0%"></stop>
            <stop stop-color="#367BFF" offset="0%"></stop>
            <stop stop-color="#74D6FF" offset="97.5942458%"></stop>
            <stop stop-color="#54D4FF" offset="100%"></stop>
        </linearGradient>
    </defs>
    <g id="页面1" stroke="none" stroke-width="1" fill="none" fill-rule="evenodd">
        <g id="1商划_统计报表" transform="translate(-752.000000, -248.000000)">
            <g id="数据概览" transform="translate(280.000000, 196.000000)">
                <g id="编组-9备份" transform="translate(400.000000, 36.000000)">
                    <g id="效果评估/新店数" transform="translate(72.000000, 16.000000)">
                        <g id="编组-2">
                            <g id="效果评估/新店数">
                                <rect id="矩形" fill="#D8D8D8" opacity="0" x="0" y="0" width="32" height="32" rx="2"></rect>
                                <rect id="矩形" fill="url(#linearGradient-1)" x="2" y="2" width="28" height="28" rx="14"></rect>
                                <g id="编组" transform="translate(10.500000, 10.500000)" fill="#FFFFFF">
                                    <rect id="矩形" x="0" y="0" width="8" height="8" rx="2"></rect>
                                    <path d="M6.01190777,4.03543346 L9,4.03543346 C10.1045695,4.03543346 11,4.93086396 11,6.03543346 L11,9 C11,10.1045695 10.1045695,11 9,11 L6.01190777,11 C4.90733827,11 4.01190777,10.1045695 4.01190777,9 L4.01190777,6.03543346 C4.01190777,4.93086396 4.90733827,4.03543346 6.01190777,4.03543346 Z" id="矩形"></path>
                                    <path d="M7.61173079,4.43543346 L5.01190777,4.43543346 C4.68053692,4.43543346 4.41190777,4.70406261 4.41190777,5.03546178 L4.41172365,7.6354406 L7.01196133,7.63548701 C7.34333218,7.63548701 7.61196133,7.36685786 7.61196133,7.03552248 L7.61173079,4.43543346 Z" id="形状结合" stroke="#4CB0F5" stroke-width="0.8"></path>
                                </g>
                            </g>
                        </g>
                    </g>
                </g>
            </g>
        </g>
    </g>
</svg>