<?xml version="1.0" encoding="UTF-8"?>
<svg width="32px" height="32px" viewBox="0 0 32 32" version="1.1" xmlns="http://www.w3.org/2000/svg" xmlns:xlink="http://www.w3.org/1999/xlink">
    <!-- Generator: Sketch 61.2 (89653) - https://sketch.com -->
    <title>xiaoguo_bule2@2x</title>
    <desc>Created with Sketch.</desc>
    <defs>
        <linearGradient x1="106.296723%" y1="105.455987%" x2="-5.52431534%" y2="-7.92350016%" id="linearGradient-1">
            <stop stop-color="#2771FF" offset="0%"></stop>
            <stop stop-color="#367BFF" offset="0%"></stop>
            <stop stop-color="#74D6FF" offset="97.5942458%"></stop>
            <stop stop-color="#54D4FF" offset="100%"></stop>
        </linearGradient>
    </defs>
    <g id="页面1" stroke="none" stroke-width="1" fill="none" fill-rule="evenodd">
        <g id="1商划_统计报表" transform="translate(-552.000000, -248.000000)">
            <g id="数据概览" transform="translate(280.000000, 196.000000)">
                <g id="编组-9" transform="translate(200.000000, 36.000000)">
                    <g id="效果评估/新店数" transform="translate(72.000000, 16.000000)">
                        <g id="编组-2">
                            <g id="效果评估/新店数">
                                <rect id="矩形" fill="#D8D8D8" opacity="0" x="0" y="0" width="32" height="32" rx="2"></rect>
                                <rect id="矩形" fill="url(#linearGradient-1)" x="2" y="2" width="28" height="28" rx="14"></rect>
                                <g id="编辑" transform="translate(10.000000, 10.000000)" fill="#FFFFFF" fill-rule="nonzero">
                                    <path d="M10.053125,2.575 C10.2734375,2.3546875 10.3285156,2.05351563 10.1761719,1.90234375 L8.61054688,0.335546875 C8.459375,0.184375 8.15820312,0.239453125 7.93789062,0.45859375 L0.202734375,8.04140625 C0.092578125,8.1515625 0.0234375,8.2921875 0.009375,8.43398438 L0.01171875,10.0019531 C-0.01640625,10.2972656 0.215625,10.5292969 0.5109375,10.5011719 L2.07890625,10.5140625 C2.22070312,10.5 2.3625,10.4308594 2.47148437,10.3207031 L10.053125,2.575 Z M6,9 C5.84296875,9 5.69296875,9.06210938 5.5828125,9.1734375 C5.38242188,9.375 4.86210937,9.72421875 4.58671875,10.0101563 C4.40859375,10.1953125 4.53984375,10.5035156 4.79648437,10.5035156 L10.8976562,10.5035156 C11.2257812,10.5035156 11.4941406,10.2351563 11.4941406,9.90703125 L11.4941406,9.59882813 C11.4917969,9.27421875 11.3257813,9 11,9 L6,9 Z" id="形状"></path>
                                </g>
                            </g>
                        </g>
                    </g>
                </g>
            </g>
        </g>
    </g>
</svg>