<?xml version="1.0" encoding="UTF-8"?>
<svg width="32px" height="32px" viewBox="0 0 32 32" version="1.1" xmlns="http://www.w3.org/2000/svg" xmlns:xlink="http://www.w3.org/1999/xlink">
    <!-- Generator: Sketch 61.2 (89653) - https://sketch.com -->
    <title>newstore_5@2x</title>
    <desc>Created with Sketch.</desc>
    <defs>
        <linearGradient x1="106.296723%" y1="105.455987%" x2="-5.52431534%" y2="-7.92350016%" id="linearGradient-1">
            <stop stop-color="#1CB6C4" offset="0%"></stop>
            <stop stop-color="#38E0B6" offset="100%"></stop>
            <stop stop-color="#34D1AA" offset="100%"></stop>
        </linearGradient>
    </defs>
    <g id="页面1" stroke="none" stroke-width="1" fill="none" fill-rule="evenodd">
        <g id="1商划_效果评估_新店" transform="translate(-1152.000000, -329.000000)">
            <g id="数据概览" transform="translate(280.000000, 277.000000)">
                <g id="编组-9备份-8" transform="translate(800.000000, 36.000000)">
                    <g id="效果评估/新店数" transform="translate(72.000000, 16.000000)">
                        <g id="编组">
                            <g id="效果评估/新店数">
                                <rect id="矩形" fill="#D8D8D8" opacity="0" x="0" y="0" width="32" height="32" rx="2"></rect>
                                <rect id="矩形" fill="url(#linearGradient-1)" opacity="0.979999959" x="2" y="2" width="28" height="28" rx="14"></rect>
                                <path d="M21.3364461,12.2626664 C21.7592128,13.0831951 22,14.0130041 22,15.0002315 C22,16.5320085 21.4211846,17.9244067 20.477021,18.9847964 C20.4520162,19.0273973 20.4228439,19.0686089 20.3867258,19.104727 L16.5633031,23.1087401 C16.5345939,23.1707891 16.4966236,23.2300598 16.4452248,23.2809956 C16.26093,23.4652904 15.9891183,23.4990932 15.7663901,23.3939803 C15.694154,23.364808 15.6260853,23.3208181 15.5672776,23.2620104 C15.5431989,23.2379317 15.5237507,23.2120008 15.5043025,23.1851437 L11.6067914,19.1042639 C11.5655798,19.0630523 11.5340922,19.015821 11.5072352,18.9672005 C10.5723326,17.9086629 10,16.5227474 10,14.9997685 C10,11.6861663 12.6861663,9 15.9997685,9 C17.1837932,9 18.2844685,9.34775227 19.2142774,9.93953309 C19.2934594,9.96963149 19.3638433,10.0168628 19.423114,10.0761335 C20.1153772,10.5581709 20.7006753,11.1828285 21.1377966,11.9061161 C21.2415204,11.9954852 21.3128304,12.1200463 21.335983,12.2622034 L21.3364461,12.2626664 Z M16,13 C14.8955509,13 14,13.8955509 14,15 C14,16.1044491 14.8955509,17 16,17 C17.104831,17 18,16.1044491 18,15 C18,13.8955509 17.1044491,13 16,13 Z" id="形状" fill="#FFFFFF" fill-rule="nonzero"></path>
                            </g>
                        </g>
                    </g>
                </g>
            </g>
        </g>
    </g>
</svg>