<?xml version="1.0" encoding="UTF-8"?>
<svg width="32px" height="32px" viewBox="0 0 32 32" version="1.1" xmlns="http://www.w3.org/2000/svg" xmlns:xlink="http://www.w3.org/1999/xlink">
    <!-- Generator: Sketch 61.2 (89653) - https://sketch.com -->
    <title>xiaoguo_red2@2x</title>
    <desc>Created with Sketch.</desc>
    <defs>
        <linearGradient x1="106.296723%" y1="105.455987%" x2="-5.52431534%" y2="-7.92350016%" id="linearGradient-1">
            <stop stop-color="#FF3838" offset="0%"></stop>
            <stop stop-color="#FFAE52" offset="100%"></stop>
        </linearGradient>
    </defs>
    <g id="页面1" stroke="none" stroke-width="1" fill="none" fill-rule="evenodd">
        <g id="1商划_统计报表" transform="translate(-552.000000, -416.000000)">
            <g id="数据概览" transform="translate(280.000000, 196.000000)">
                <g transform="translate(0.000000, 204.000000)" id="编组-9">
                    <g transform="translate(200.000000, 0.000000)">
                        <g id="效果评估/新店数" transform="translate(72.000000, 16.000000)">
                            <g id="编组">
                                <g>
                                    <rect id="矩形" fill="#D8D8D8" opacity="0" x="0" y="0" width="32" height="32" rx="2"></rect>
                                    <rect id="矩形" fill="url(#linearGradient-1)" x="2" y="2" width="28" height="28" rx="14"></rect>
                                    <path d="M12,13 L20,13 C20.5522847,13 21,13.4477153 21,14 L21,20 C21,20.5522847 20.5522847,21 20,21 L12,21 C11.4477153,21 11,20.5522847 11,20 L11,14 C11,13.4477153 11.4477153,13 12,13 Z" id="矩形" fill="#FFFFFF"></path>
                                    <path d="M13,11 L19,11 C19.2761424,11 19.5,11.2238576 19.5,11.5 C19.5,11.7761424 19.2761424,12 19,12 L13,12 C12.7238576,12 12.5,11.7761424 12.5,11.5 C12.5,11.2238576 12.7238576,11 13,11 Z" id="矩形" fill="#FFFFFF"></path>
                                    <path d="M14,9 L18,9 C18.2761424,9 18.5,9.22385763 18.5,9.5 C18.5,9.77614237 18.2761424,10 18,10 L14,10 C13.7238576,10 13.5,9.77614237 13.5,9.5 C13.5,9.22385763 13.7238576,9 14,9 Z" id="矩形" fill="#FFFFFF"></path>
                                </g>
                            </g>
                        </g>
                    </g>
                </g>
            </g>
        </g>
    </g>
</svg>