<?xml version="1.0" encoding="UTF-8"?>
<svg width="32px" height="32px" viewBox="0 0 32 32" version="1.1" xmlns="http://www.w3.org/2000/svg" xmlns:xlink="http://www.w3.org/1999/xlink">
    <!-- Generator: Sketch 61.2 (89653) - https://sketch.com -->
    <title>xiaoguo_green2@2x</title>
    <desc>Created with Sketch.</desc>
    <defs>
        <linearGradient x1="106.296723%" y1="105.455987%" x2="-5.52431534%" y2="-7.92350016%" id="linearGradient-1">
            <stop stop-color="#1CB6C4" offset="0%"></stop>
            <stop stop-color="#38E0B6" offset="100%"></stop>
            <stop stop-color="#34D1AA" offset="100%"></stop>
        </linearGradient>
    </defs>
    <g id="页面1" stroke="none" stroke-width="1" fill="none" fill-rule="evenodd">
        <g id="1商划_统计报表" transform="translate(-1152.000000, -416.000000)">
            <g id="数据概览" transform="translate(280.000000, 196.000000)">
                <g transform="translate(0.000000, 204.000000)" id="编组-9备份-2">
                    <g transform="translate(800.000000, 0.000000)">
                        <g id="效果评估/新店数" transform="translate(72.000000, 16.000000)">
                            <g id="编组">
                                <g id="效果评估/新店数">
                                    <rect id="矩形" fill="#D8D8D8" opacity="0" x="0" y="0" width="32" height="32" rx="2"></rect>
                                    <rect id="矩形" fill="url(#linearGradient-1)" opacity="0.979999959" x="2" y="2" width="28" height="28" rx="14"></rect>
                                    <path d="M18.5244774,11.0321301 L21.5814747,17.048059 C21.8177854,17.5130998 21.6569376,18.0816663 21.2120263,18.3539889 L17.1824261,20.8204385 C16.8595608,21.0180588 16.4527837,21.0164311 16.1315103,20.8162334 L10.2767199,17.1678885 C9.80799161,16.875806 9.66479198,16.2590469 9.95687458,15.7903186 C10.0271695,15.6775108 10.119248,15.5798485 10.227727,15.5030416 L17.0551204,10.6690079 C17.5058617,10.3498673 18.1299743,10.4565507 18.4491149,10.907292 C18.4772403,10.9470152 18.5024281,10.9887388 18.5244774,11.0321301 Z" id="矩形" fill="#FFFFFF"></path>
                                </g>
                            </g>
                        </g>
                    </g>
                </g>
            </g>
        </g>
    </g>
</svg>