<?xml version="1.0" encoding="UTF-8"?>
<svg width="32px" height="32px" viewBox="0 0 32 32" version="1.1" xmlns="http://www.w3.org/2000/svg" xmlns:xlink="http://www.w3.org/1999/xlink">
    <!-- Generator: Sketch 61.2 (89653) - https://sketch.com -->
    <title>oldstore_1@2x</title>
    <desc>Created with Sketch.</desc>
    <defs>
        <linearGradient x1="106.296723%" y1="105.455987%" x2="-5.52431534%" y2="-7.92350016%" id="linearGradient-1">
            <stop stop-color="#FF3838" offset="0%"></stop>
            <stop stop-color="#FFAE52" offset="100%"></stop>
        </linearGradient>
    </defs>
    <g id="页面1" stroke="none" stroke-width="1" fill="none" fill-rule="evenodd">
        <g id="1商划_统计报表" transform="translate(-352.000000, -416.000000)">
            <g id="数据概览" transform="translate(280.000000, 196.000000)">
                <g transform="translate(0.000000, 204.000000)" id="编组-9备份-6">
                    <g>
                        <g id="效果评估/新店数" transform="translate(72.000000, 16.000000)">
                            <g id="编组">
                                <g>
                                    <rect id="矩形" fill="#D8D8D8" opacity="0" x="0" y="0" width="32" height="32" rx="2"></rect>
                                    <rect id="矩形" fill="url(#linearGradient-1)" x="2" y="2" width="28" height="28" rx="14"></rect>
                                    <g transform="translate(9.000000, 5.988527)" id="矩形">
                                        <path d="M2.67369884,5.44314233 L5.72540596,2.3914352 C5.9689497,2.14789146 6.32068364,2.04681894 6.65636604,2.12391913 L9.52893271,2.7836959 C10.067202,2.90732666 10.403333,3.44390271 10.2797023,3.98217205 C10.2376692,4.16517767 10.1449601,4.33265159 10.0121862,4.46542554 L4.70840376,9.76920797 C4.31787947,10.1597323 3.68471449,10.1597323 3.2941902,9.76920797 C3.15761258,9.63263036 3.06351077,9.45942211 3.02325594,9.27051357 L2.40276458,6.35866149 C2.33215338,6.02729612 2.4341274,5.68271376 2.67369884,5.44314233 Z" fill="#FFFFFF" transform="translate(6.789537, 6.535371) rotate(-315.000000) translate(-6.789537, -6.535371) "></path>
                                        <path d="M3,9.01147273 L11,9.01147273 C11.5522847,9.01147273 12,9.45918798 12,10.0114727 L12,14.8649883 C11.9998822,14.9524815 11.9429791,15.0298062 11.8594447,15.0558265 C10.185328,15.5773015 8.56551312,15.838039 7,15.838039 C5.4344038,15.838039 3.81450005,15.5772738 2.14028877,15.0557435 C2.05687012,15.0295183 2,14.9522372 2,14.8647937 L2,10.0114727 C2,9.45918798 2.44771525,9.01147273 3,9.01147273 Z" fill="#FFFFFF"></path>
                                        <rect fill="#FF7846" x="6.28726141" y="12.0114727" width="1" height="3" rx="0.5"></rect>
                                    </g>
                                </g>
                            </g>
                        </g>
                    </g>
                </g>
            </g>
        </g>
    </g>
</svg>