<?xml version="1.0" encoding="UTF-8"?>
<svg width="32px" height="32px" viewBox="0 0 32 32" version="1.1" xmlns="http://www.w3.org/2000/svg" xmlns:xlink="http://www.w3.org/1999/xlink">
    <!-- Generator: Sketch 61.2 (89653) - https://sketch.com -->
    <title>oldstore_2@2x</title>
    <desc>Created with Sketch.</desc>
    <defs>
        <linearGradient x1="106.296723%" y1="105.455987%" x2="-5.52431534%" y2="-7.92350016%" id="linearGradient-1">
            <stop stop-color="#FF3838" offset="0%"></stop>
            <stop stop-color="#FFAE52" offset="100%"></stop>
        </linearGradient>
    </defs>
    <g id="页面1" stroke="none" stroke-width="1" fill="none" fill-rule="evenodd">
        <g id="1商划_统计报表" transform="translate(-752.000000, -416.000000)">
            <g id="数据概览" transform="translate(280.000000, 196.000000)">
                <g transform="translate(0.000000, 204.000000)" id="编组-9备份-3">
                    <g transform="translate(400.000000, 0.000000)">
                        <g id="效果评估/新店数" transform="translate(72.000000, 16.000000)">
                            <g id="编组">
                                <g>
                                    <rect id="矩形" fill="#D8D8D8" opacity="0" x="0" y="0" width="32" height="32" rx="2"></rect>
                                    <rect id="矩形" fill="url(#linearGradient-1)" x="2" y="2" width="28" height="28" rx="14"></rect>
                                    <path d="M13.606,20.372 L19.006,11.456 L18.394,11.132 L12.982,20.048 L13.606,20.372 Z M11.57,15.56 C11.866,15.56 12.142,15.506 12.398,15.398 C12.654,15.29 12.878,15.142 13.07,14.954 C13.262,14.766 13.412,14.544 13.52,14.288 C13.628,14.032 13.682,13.756 13.682,13.46 C13.682,13.164 13.628,12.888 13.52,12.632 C13.412,12.376 13.262,12.154 13.07,11.966 C12.878,11.778 12.654,11.63 12.398,11.522 C12.142,11.414 11.866,11.36 11.57,11.36 C11.274,11.36 10.998,11.414 10.742,11.522 C10.486,11.63 10.262,11.778 10.07,11.966 C9.878,12.154 9.728,12.376 9.62,12.632 C9.512,12.888 9.458,13.164 9.458,13.46 C9.458,13.756 9.512,14.032 9.62,14.288 C9.728,14.544 9.878,14.766 10.07,14.954 C10.262,15.142 10.486,15.29 10.742,15.398 C10.998,15.506 11.274,15.56 11.57,15.56 Z M11.57,14.84 C11.378,14.84 11.198,14.806 11.03,14.738 C10.862,14.67 10.716,14.574 10.592,14.45 C10.468,14.326 10.368,14.18 10.292,14.012 C10.216,13.844 10.178,13.66 10.178,13.46 C10.178,13.26 10.216,13.076 10.292,12.908 C10.368,12.74 10.468,12.594 10.592,12.47 C10.716,12.346 10.862,12.25 11.03,12.182 C11.198,12.114 11.378,12.08 11.57,12.08 C11.762,12.08 11.942,12.114 12.11,12.182 C12.278,12.25 12.424,12.346 12.548,12.47 C12.672,12.594 12.772,12.74 12.848,12.908 C12.924,13.076 12.962,13.26 12.962,13.46 C12.962,13.66 12.924,13.844 12.848,14.012 C12.772,14.18 12.672,14.326 12.548,14.45 C12.424,14.574 12.278,14.67 12.11,14.738 C11.942,14.806 11.762,14.84 11.57,14.84 Z M20.43,20.144 C20.726,20.144 21.002,20.09 21.258,19.982 C21.514,19.874 21.738,19.726 21.93,19.538 C22.122,19.35 22.272,19.128 22.38,18.872 C22.488,18.616 22.542,18.34 22.542,18.044 C22.542,17.748 22.488,17.472 22.38,17.216 C22.272,16.96 22.122,16.738 21.93,16.55 C21.738,16.362 21.514,16.214 21.258,16.106 C21.002,15.998 20.726,15.944 20.43,15.944 C20.134,15.944 19.858,15.998 19.602,16.106 C19.346,16.214 19.122,16.362 18.93,16.55 C18.738,16.738 18.588,16.96 18.48,17.216 C18.372,17.472 18.318,17.748 18.318,18.044 C18.318,18.34 18.372,18.616 18.48,18.872 C18.588,19.128 18.738,19.35 18.93,19.538 C19.122,19.726 19.346,19.874 19.602,19.982 C19.858,20.09 20.134,20.144 20.43,20.144 Z M20.43,19.424 C20.238,19.424 20.058,19.39 19.89,19.322 C19.722,19.254 19.576,19.158 19.452,19.034 C19.328,18.91 19.228,18.764 19.152,18.596 C19.076,18.428 19.038,18.244 19.038,18.044 C19.038,17.844 19.076,17.66 19.152,17.492 C19.228,17.324 19.328,17.178 19.452,17.054 C19.576,16.93 19.722,16.834 19.89,16.766 C20.058,16.698 20.238,16.664 20.43,16.664 C20.622,16.664 20.802,16.698 20.97,16.766 C21.138,16.834 21.284,16.93 21.408,17.054 C21.532,17.178 21.632,17.324 21.708,17.492 C21.784,17.66 21.822,17.844 21.822,18.044 C21.822,18.244 21.784,18.428 21.708,18.596 C21.632,18.764 21.532,18.91 21.408,19.034 C21.284,19.158 21.138,19.254 20.97,19.322 C20.802,19.39 20.622,19.424 20.43,19.424 Z" id="%" stroke="#FFFFFF" fill="#FFFFFF" fill-rule="nonzero"></path>
                                </g>
                            </g>
                        </g>
                    </g>
                </g>
            </g>
        </g>
    </g>
</svg>