<?xml version="1.0" encoding="UTF-8"?>
<svg width="32px" height="32px" viewBox="0 0 32 32" version="1.1" xmlns="http://www.w3.org/2000/svg" xmlns:xlink="http://www.w3.org/1999/xlink">
    <!-- Generator: Sketch 61.2 (89653) - https://sketch.com -->
    <title>oldstore_4@2x</title>
    <desc>Created with Sketch.</desc>
    <defs>
        <linearGradient x1="106.296723%" y1="105.455987%" x2="-4.16078811%" y2="-6.54096947%" id="linearGradient-1">
            <stop stop-color="#FF9624" offset="0%"></stop>
            <stop stop-color="#FFDA61" offset="100%"></stop>
        </linearGradient>
    </defs>
    <g id="页面1" stroke="none" stroke-width="1" fill="none" fill-rule="evenodd">
        <g id="4商划_效果评估_老店" transform="translate(-952.000000, -329.000000)">
            <g id="数据概览" transform="translate(280.000000, 277.000000)">
                <g id="编组-9备份-8" transform="translate(600.000000, 36.000000)">
                    <g id="效果评估/新店数" transform="translate(72.000000, 16.000000)">
                        <g id="编组">
                            <g>
                                <rect id="矩形" fill="#D8D8D8" opacity="0" x="0" y="0" width="32" height="32" rx="2"></rect>
                                <rect id="矩形" fill="url(#linearGradient-1)" x="2" y="2" width="28" height="28" rx="14"></rect>
                                <g id="距离" transform="translate(10.000000, 9.000000)" fill="#FFFFFF" fill-rule="nonzero">
                                    <path d="M11.3364461,3.26266641 C11.7592128,4.08319506 12,5.01300405 12,6.00023153 C12,7.53200849 11.4211846,8.92440671 10.477021,9.98479645 C10.4520162,10.0273973 10.4228439,10.0686089 10.3867258,10.104727 L6.56330311,14.1087401 C6.53459386,14.1707891 6.49662358,14.2300598 6.44522477,14.2809956 C6.26092996,14.4652904 5.98911827,14.4990932 5.76639012,14.3939803 C5.69415396,14.364808 5.62608528,14.3208181 5.56727764,14.2620104 C5.54319892,14.2379317 5.52375072,14.2120008 5.50430253,14.1851437 L1.60679143,10.1042639 C1.56557978,10.0630523 1.53409222,10.015821 1.50723519,9.96720046 C0.572332626,8.90866294 0,7.52274744 0,5.99976847 C0,2.68616631 2.68616631,0 5.99976847,0 C7.18379317,0 8.28446845,0.347752267 9.21427745,0.939533089 C9.29345939,0.969631488 9.36384333,1.01686282 9.42311403,1.07613351 C10.1153772,1.55817094 10.7006753,2.18282848 11.1377966,2.90611615 C11.2415204,2.99548524 11.3128304,3.12004631 11.335983,3.26220336 L11.3364461,3.26266641 Z M6,4 C4.89555089,4 4,4.89555089 4,6 C4,7.10444911 4.89555089,8 6,8 C7.10483101,8 8,7.10444911 8,6 C8,4.89555089 7.10444911,4 6,4 Z" id="形状"></path>
                                </g>
                            </g>
                        </g>
                    </g>
                </g>
            </g>
        </g>
    </g>
</svg>