<?xml version="1.0" encoding="UTF-8"?>
<svg width="36px" height="36px" viewBox="0 0 36 36" version="1.1" xmlns="http://www.w3.org/2000/svg" xmlns:xlink="http://www.w3.org/1999/xlink">
    <!-- Generator: Sketch 61.2 (89653) - https://sketch.com -->
    <title>map_ziyou@2x</title>
    <desc>Created with Sketch.</desc>
    <g id="页面1" stroke="none" stroke-width="1" fill="none" fill-rule="evenodd">
        <g id="2商划_商圈规划弹窗" transform="translate(-443.000000, -569.000000)">
            <g id="编组-7备份" transform="translate(425.000000, 531.000000)">
                <g id="地图/新店KFC" transform="translate(18.000000, 38.000000)">
                    <g>
                        <rect id="矩形" fill="#D8D8D8" opacity="0" x="0" y="0" width="36" height="36"></rect>
                        <g transform="translate(3.000000, 1.000000)" id="地图/新店">
                            <g>
                                <ellipse id="椭圆形" fill-opacity="0.2" fill="#522727" cx="15" cy="33.5" rx="5.5" ry="1.5"></ellipse>
                                <g id="编组-9">
                                    <path d="M15,0 C23.2842712,0 30,6.71572875 30,15 C30,22.3260659 24.7479825,28.4254574 17.8036967,29.7384251 C17.3605467,30.0820096 16.9597226,30.4896166 16.6,30.9595451 C16.0126742,31.7268061 15.5023679,32.6122599 15.0690812,33.6159066 C15.0583526,33.6407579 15.0376712,33.6599543 15.0120909,33.6688051 C14.9617715,33.6862154 14.9068657,33.6595373 14.8894554,33.609218 L14.8894554,33.609218 L14.7915603,33.6430893 C14.4271877,32.5899792 13.9633343,31.6954644 13.4,30.9595451 C13.047028,30.4984354 12.6387001,30.0896395 12.1750162,29.7331574 C5.24092349,28.4125652 0,22.3183242 0,15 C0,6.71572875 6.71572875,0 15,0 Z" id="形状结合" fill="#E62A26" fill-rule="nonzero"></path>
                                    <path d="M24.2327099,12.0008496 C24.9161541,12.0123554 25.5627798,12.1320157 26,12.2746876 L26,12.2746876 L25.5742856,13.7957536 L25.362579,13.7957536 C25.318857,13.7405258 25.2682315,13.6875991 25.2130036,13.6392748 C24.943768,13.3700392 24.5594745,13.1859465 23.8990419,13.1859465 C23.0476131,13.1859465 22.3779758,13.425267 21.9246475,13.8210664 C21.4897285,14.1869506 21.2596126,14.6955068 21.2596126,15.263893 C21.2642149,16.3385343 22.1938831,17.1646503 23.5768796,17.1623492 C24.0854358,17.1623492 24.7228568,17.015075 25.2245094,16.8447892 L25.2245094,16.8447892 L24.9253588,18.1357394 C24.7826869,18.1679556 24.6377139,18.1909672 24.4835363,18.2185811 C23.9634743,18.3106275 23.3927869,18.3704576 22.7553659,18.3750599 C20.1573574,18.3865657 19.0320907,17.0472912 19.0297895,15.6642947 C19.0297895,14.7300242 19.529141,13.7957536 20.4496046,13.0962013 C21.3470566,12.4242629 22.6380068,11.9778381 24.2327099,12.0008496 Z M13.3542111,12.0500944 L13.2529601,12.4597007 C13.2529601,12.4597007 13.0757709,12.4412915 12.8065353,12.5862645 C12.7098866,12.6345888 12.6063345,12.6990213 12.4866742,12.7933688 L12.4866742,12.7933688 L12.4038325,12.8578012 L9.8518472,14.9035315 C9.8518472,14.9035315 11.2923727,17.154065 11.4603573,17.3289531 C11.6260408,17.5038411 11.8998787,17.8029918 12.3140873,17.8029918 L12.3140873,17.8029918 L12.2036316,18.2379109 L11.7871219,18.2379109 C10.1579013,18.254019 9.48136061,18.297741 8.85314422,17.4233006 C8.17200117,16.4867289 8.04083511,16.3739721 7.47014769,15.4627132 C7.47014769,15.4627132 7.37349902,15.8193928 7.26304339,16.2243968 C7.14108196,16.6547135 7.0099159,17.1264511 6.95929041,17.3151461 C6.86034057,17.6971385 7.38270365,17.7960883 7.38270365,17.7960883 L7.38270365,17.7960883 L7.27454918,18.2379109 L4,18.2379109 L4.06213129,17.9686753 L4.10585331,17.7960883 L4.22321242,17.7960883 C4.43261788,17.7730767 4.7846952,17.6488142 5.01941341,16.7559645 C5.08844818,16.546559 4.96648676,16.9193468 6.01121292,13.1454461 C6.16539057,12.5862645 5.73737501,12.5034228 5.58549851,12.4597007 L5.58549851,12.4597007 L5.60620895,12.3814613 L5.68905067,12.0639014 L8.81632568,12.0546968 L8.71277352,12.4597007 C8.71277352,12.4597007 8.2939626,12.5080251 8.17660349,12.9015233 L8.17660349,12.9015233 L7.63352998,14.8598095 L7.61742187,14.9334466 C7.61742187,14.9334466 10.224635,12.9429441 10.2499477,12.9199325 C10.5053763,12.6737085 10.197021,12.47811 9.96690515,12.4597007 L9.96690515,12.4597007 L9.9922179,12.3814613 L10.0750596,12.0639014 L13.3542111,12.0500944 Z M19.4964646,12.0622906 L19.0845571,13.7122215 L18.8728505,13.7122215 C18.8728505,13.6385845 18.8176227,13.5442369 18.7324798,13.4682987 C18.6266265,13.385457 18.4701477,13.3095187 18.286055,13.3095187 L18.286055,13.3095187 L16.403707,13.3095187 L16.3162629,13.6385845 L16.0815447,14.5038202 L18.2446341,14.5038202 L17.867244,16.0156817 C17.867244,16.0156817 17.7705954,15.8730098 17.5174679,15.7671565 C17.3863018,15.716531 17.2321242,15.6843148 17.0250199,15.6843148 L17.0250199,15.6843148 L15.738672,15.6843148 C15.738672,15.6843148 15.7018535,15.8154808 15.6466257,16.0041759 C15.5292666,16.4390949 15.333668,17.1662611 15.3244634,17.1984774 C15.1909962,17.6771184 15.7179616,17.8036822 15.7179616,17.8036822 L15.7179616,17.8036822 L15.6121083,18.2386012 L12.8069955,18.2386012 L14.2061002,13.1461364 C14.3970964,12.5225224 13.7826869,12.4603911 13.7826869,12.4603911 L13.7826869,12.4603911 L13.8010962,12.3821517 L13.8862391,12.0622906 L19.4964646,12.0622906 Z" id="形状结合" fill="#FEFEFE"></path>
                                </g>
                            </g>
                        </g>
                    </g>
                </g>
            </g>
        </g>
    </g>
</svg>