<?xml version="1.0" encoding="UTF-8"?>
<svg width="20px" height="22px" viewBox="0 0 20 22" version="1.1" xmlns="http://www.w3.org/2000/svg" xmlns:xlink="http://www.w3.org/1999/xlink">
    <!-- Generator: Sketch 61.2 (89653) - https://sketch.com -->
    <title>map_legendziyou@2x</title>
    <desc>Created with Sketch.</desc>
    <g id="页面1" stroke="none" stroke-width="1" fill="none" fill-rule="evenodd">
        <g id="1商划_商圈规划" transform="translate(-304.000000, -387.000000)">
            <g id="地图" transform="translate(280.000000, 364.000000)">
                <g id="图例" transform="translate(8.000000, 8.000000)">
                    <g id="map/legendziyou" transform="translate(16.000000, 15.000000)">
                        <g id="编组">
                            <rect id="矩形" fill="#D8D8D8" opacity="0" x="0" y="0" width="20" height="22"></rect>
                            <g id="地图/新店KFC" transform="translate(2.000000, 1.000000)">
                                <g id="地图/新店">
                                    <ellipse id="椭圆形" fill-opacity="0.2" fill="#522727" cx="8.33333333" cy="18.7777778" rx="3.05555556" ry="1"></ellipse>
                                    <g id="编组-9">
                                        <path d="M8.33333333,0 C12.9357062,0 16.6666667,3.73096042 16.6666667,8.33333333 C16.6666667,12.402759 13.7497551,15.7909034 9.89267997,16.5210186 C9.64570508,16.7112547 9.42249749,16.938115 9.22222222,17.1997473 C8.90187184,17.6182413 8.62276594,18.1000284 8.38490452,18.6451085 C8.37387995,18.6703722 8.35288132,18.6899395 8.32690337,18.6991561 C8.27504666,18.717554 8.21809405,18.6904303 8.19969614,18.6385736 L8.19969614,18.6385736 L8.0952097,18.3643094 C7.91442149,17.9185168 7.69749974,17.5303295 7.44444444,17.1997473 C7.24807825,16.9432217 7.02087379,16.7158395 6.76283105,16.5176009 C2.91098375,15.7840137 0,12.3986219 0,8.33333333 C0,3.73096042 3.73096042,0 8.33333333,0 Z" id="形状结合" fill="#E62A26" fill-rule="nonzero"></path>
                                        <path d="M13.8933962,6.34495509 C14.304153,6.35187019 14.6927816,6.42378721 14.9555553,6.50953444 L14.9555553,6.50953444 L14.6996967,7.42371049 L14.5724589,7.42371049 C14.5461815,7.39051802 14.5157551,7.35870856 14.4825626,7.32966515 C14.3207493,7.16785184 14.089785,7.05721026 13.6928583,7.05721026 C13.181141,7.05721026 12.7786822,7.20104431 12.5062274,7.43892371 C12.2448366,7.65882385 12.1065347,7.96447121 12.1065347,8.30607709 C12.1093007,8.95194731 12.6680407,9.4484514 13.4992355,9.44706838 C13.8048829,9.44706838 14.1879794,9.35855512 14.4894777,9.25621166 L14.4894777,9.25621166 L14.3096851,10.0320857 C14.2239379,10.051448 14.1368076,10.0652782 14.0441453,10.0818744 C13.7315829,10.1371952 13.388594,10.1731537 13.0054975,10.1759198 C11.4440682,10.1828349 10.7677715,9.37791739 10.7663885,8.54672253 C10.7663885,7.98521651 11.0665038,7.42371049 11.6197117,7.00327249 C12.1590894,6.59943072 12.9349635,6.33112489 13.8933962,6.34495509 Z M7.35530861,6.37455171 L7.29445574,6.62072922 C7.29445574,6.62072922 7.18796322,6.60966507 7.02614991,6.69679531 C6.96806308,6.72583873 6.90582719,6.76456328 6.83391016,6.82126709 L6.83391016,6.82126709 L6.78412145,6.85999164 L5.25035255,8.0894962 C5.25035255,8.0894962 6.11612292,9.44208951 6.21708336,9.54719901 C6.31666078,9.65230851 6.48124013,9.83210108 6.73018368,9.83210108 L6.73018368,9.83210108 L6.66379874,10.0934918 L6.41347216,10.0934918 C5.43429418,10.103173 5.02768637,10.1294503 4.65012198,9.60390282 C4.24074814,9.04101378 4.16191601,8.97324582 3.81892711,8.42557 C3.81892711,8.42557 3.76084028,8.63993806 3.69445534,8.88334953 C3.62115529,9.14197423 3.54232316,9.42549327 3.51189673,9.53890089 C3.45242688,9.76848217 3.76637236,9.82795202 3.76637236,9.82795202 L3.76637236,9.82795202 L3.70137043,10.0934918 L1.73333333,10.0934918 L1.77067487,9.9316785 L1.79695224,9.82795202 L1.86748625,9.82795202 C1.99334105,9.81412182 2.20494307,9.73943876 2.34601108,9.20282709 C2.38750167,9.0769723 2.31420163,9.3010215 2.94209259,7.03286911 C3.03475492,6.69679531 2.77751324,6.6470066 2.68623394,6.62072922 L2.68623394,6.62072922 L2.69868112,6.57370655 L2.74846983,6.38284983 L4.62799367,6.37731775 L4.56575778,6.62072922 C4.56575778,6.62072922 4.31404818,6.64977264 4.24351418,6.88626902 L4.24351418,6.88626902 L3.91712152,8.06321882 L3.90744038,8.10747545 C3.90744038,8.10747545 5.47440175,6.91116337 5.48961497,6.89733317 C5.64313016,6.74935006 5.45780552,6.63179338 5.31950354,6.62072922 L5.31950354,6.62072922 L5.33471676,6.57370655 L5.38450547,6.38284983 L7.35530861,6.37455171 Z M11.0468649,6.38188171 L10.7993044,7.37350687 L10.6720666,7.37350687 C10.6720666,7.32925024 10.6388741,7.27254643 10.5877024,7.22690678 C10.5240835,7.17711807 10.4300381,7.13147842 10.3193965,7.13147842 L10.3193965,7.13147842 L9.18808638,7.13147842 L9.13553163,7.32925024 L8.99446361,7.84926567 L10.2945022,7.84926567 L10.0676869,8.75790964 C10.0676869,8.75790964 10.0096001,8.67216242 9.85746794,8.60854351 C9.77863581,8.57811707 9.68597349,8.5587548 9.56150171,8.5587548 L9.56150171,8.5587548 L8.78839367,8.5587548 C8.78839367,8.5587548 8.76626536,8.63758692 8.73307288,8.75099454 C8.66253888,9.01238528 8.5449822,9.44941952 8.53945012,9.46878179 C8.45923497,9.7564499 8.77594649,9.83251599 8.77594649,9.83251599 L8.77594649,9.83251599 L8.71232759,10.0939067 L7.02642651,10.0939067 L7.86730252,7.03328402 C7.98209316,6.65848566 7.61282689,6.62114413 7.61282689,6.62114413 L7.61282689,6.62114413 L7.62389104,6.57412146 L7.67506278,6.38188171 L11.0468649,6.38188171 Z" id="形状结合" fill="#FEFEFE"></path>
                                    </g>
                                </g>
                            </g>
                        </g>
                    </g>
                </g>
            </g>
        </g>
    </g>
</svg>