<?xml version="1.0" encoding="UTF-8"?>
<svg width="20px" height="22px" viewBox="0 0 20 22" version="1.1" xmlns="http://www.w3.org/2000/svg" xmlns:xlink="http://www.w3.org/1999/xlink">
    <!-- Generator: Sketch 61.2 (89653) - https://sketch.com -->
    <title>map_legendjiameng@2x</title>
    <desc>Created with Sketch.</desc>
    <g id="页面1" stroke="none" stroke-width="1" fill="none" fill-rule="evenodd">
        <g id="1商划_商圈规划" transform="translate(-304.000000, -419.000000)">
            <g id="地图" transform="translate(280.000000, 364.000000)">
                <g id="图例" transform="translate(8.000000, 8.000000)">
                    <g id="map/legendziyou" transform="translate(16.000000, 47.000000)">
                        <g id="地图/新店KFC">
                            <g id="地图/新店">
                                <rect id="矩形" fill="#D8D8D8" opacity="0" x="0" y="0" width="20" height="22"></rect>
                                <ellipse id="椭圆形" fill-opacity="0.2" fill="#522727" cx="10.3333333" cy="19.7777778" rx="3.05555556" ry="1"></ellipse>
                                <g id="编组-9" transform="translate(2.000000, 1.000000)">
                                    <path d="M8.33333333,0 C12.9357062,0 16.6666667,3.73096042 16.6666667,8.33333333 C16.6666667,12.402759 13.7497551,15.7909034 9.89267997,16.5210186 C9.64570508,16.7112547 9.42249749,16.938115 9.22222222,17.1997473 C8.90187184,17.6182413 8.62276594,18.1000284 8.38490452,18.6451085 C8.37387995,18.6703722 8.35288132,18.6899395 8.32690337,18.6991561 C8.27504666,18.717554 8.21809405,18.6904303 8.19969614,18.6385736 L8.19969614,18.6385736 L8.0952097,18.3643094 C7.91442149,17.9185168 7.69749974,17.5303295 7.44444444,17.1997473 C7.24807825,16.9432217 7.02087379,16.7158395 6.76283105,16.5176009 C2.91098375,15.7840137 0,12.3986219 0,8.33333333 C0,3.73096042 3.73096042,0 8.33333333,0 Z" id="形状结合" fill="#FF9726"></path>
                                    <path d="M13.8933962,6.14495509 C14.304153,6.15187019 14.6927816,6.22378721 14.9555553,6.30953444 L14.9555553,6.30953444 L14.6996967,7.22371049 L14.5724589,7.22371049 C14.5461815,7.19051802 14.5157551,7.15870856 14.4825626,7.12966515 C14.3207493,6.96785184 14.089785,6.85721026 13.6928583,6.85721026 C13.181141,6.85721026 12.7786822,7.00104431 12.5062274,7.23892371 C12.2448366,7.45882385 12.1065347,7.76447121 12.1065347,8.10607709 C12.1093007,8.75194731 12.6680407,9.2484514 13.4992355,9.24706838 C13.8048829,9.24706838 14.1879794,9.15855512 14.4894777,9.05621166 L14.4894777,9.05621166 L14.3096851,9.83208574 C14.2239379,9.85144801 14.1368076,9.86527821 14.0441453,9.88187445 C13.7315829,9.93719524 13.388594,9.97315375 13.0054975,9.97591979 C11.4440682,9.98283489 10.7677715,9.17791739 10.7663885,8.34672253 C10.7663885,7.78521651 11.0665038,7.22371049 11.6197117,6.80327249 C12.1590894,6.39943072 12.9349635,6.13112489 13.8933962,6.14495509 Z M7.35530861,6.17455171 L7.29445574,6.42072922 C7.29445574,6.42072922 7.18796322,6.40966507 7.02614991,6.49679531 C6.96806308,6.52583873 6.90582719,6.56456328 6.83391016,6.62126709 L6.83391016,6.62126709 L6.78412145,6.65999164 L5.25035255,7.8894962 C5.25035255,7.8894962 6.11612292,9.24208951 6.21708336,9.34719901 C6.31666078,9.45230851 6.48124013,9.63210108 6.73018368,9.63210108 L6.73018368,9.63210108 L6.66379874,9.89349181 L6.41347216,9.89349181 C5.43429418,9.90317295 5.02768637,9.92945033 4.65012198,9.40390282 C4.24074814,8.84101378 4.16191601,8.77324582 3.81892711,8.22557 C3.81892711,8.22557 3.76084028,8.43993806 3.69445534,8.68334953 C3.62115529,8.94197423 3.54232316,9.22549327 3.51189673,9.33890089 C3.45242688,9.56848217 3.76637236,9.62795202 3.76637236,9.62795202 L3.76637236,9.62795202 L3.70137043,9.89349181 L1.73333333,9.89349181 L1.77067487,9.7316785 L1.79695224,9.62795202 L1.86748625,9.62795202 C1.99334105,9.61412182 2.20494307,9.53943876 2.34601108,9.00282709 C2.38750167,8.8769723 2.31420163,9.1010215 2.94209259,6.83286911 C3.03475492,6.49679531 2.77751324,6.4470066 2.68623394,6.42072922 L2.68623394,6.42072922 L2.69868112,6.37370655 L2.74846983,6.18284983 L4.62799367,6.17731775 L4.56575778,6.42072922 C4.56575778,6.42072922 4.31404818,6.44977264 4.24351418,6.68626902 L4.24351418,6.68626902 L3.91712152,7.86321882 L3.90744038,7.90747545 C3.90744038,7.90747545 5.47440175,6.71116337 5.48961497,6.69733317 C5.64313016,6.54935006 5.45780552,6.43179338 5.31950354,6.42072922 L5.31950354,6.42072922 L5.33471676,6.37370655 L5.38450547,6.18284983 L7.35530861,6.17455171 Z M11.0468649,6.18188171 L10.7993044,7.17350687 L10.6720666,7.17350687 C10.6720666,7.12925024 10.6388741,7.07254643 10.5877024,7.02690678 C10.5240835,6.97711807 10.4300381,6.93147842 10.3193965,6.93147842 L10.3193965,6.93147842 L9.18808638,6.93147842 L9.13553163,7.12925024 L8.99446361,7.64926567 L10.2945022,7.64926567 L10.0676869,8.55790964 C10.0676869,8.55790964 10.0096001,8.47216242 9.85746794,8.40854351 C9.77863581,8.37811707 9.68597349,8.3587548 9.56150171,8.3587548 L9.56150171,8.3587548 L8.78839367,8.3587548 C8.78839367,8.3587548 8.76626536,8.43758692 8.73307288,8.55099454 C8.66253888,8.81238528 8.5449822,9.24941952 8.53945012,9.26878179 C8.45923497,9.5564499 8.77594649,9.63251599 8.77594649,9.63251599 L8.77594649,9.63251599 L8.71232759,9.89390672 L7.02642651,9.89390672 L7.86730252,6.83328402 C7.98209316,6.45848566 7.61282689,6.42114413 7.61282689,6.42114413 L7.61282689,6.42114413 L7.62389104,6.37412146 L7.67506278,6.18188171 L11.0468649,6.18188171 Z" id="形状结合" fill="#FEFEFE"></path>
                                </g>
                            </g>
                        </g>
                    </g>
                </g>
            </g>
        </g>
    </g>
</svg>